<svg xmlns="http://www.w3.org/2000/svg" width="33.75" height="29.25" viewBox="0 0 33.75 29.25"><g transform="translate(1.125 1.125)"><path d="M4.5,4.5h27a2.25,2.25,0,0,1,2.25,2.25v18A2.25,2.25,0,0,1,31.5,27H4.5a2.25,2.25,0,0,1-2.25-2.25v-18A2.25,2.25,0,0,1,4.5,4.5Z" transform="translate(-2.25 -4.5)" fill="none" stroke="#e23737" stroke-linejoin="round" stroke-width="2.25"/><path d="M21.375,31.5,20.812,27H15.187l-.563,4.5h6.75Z" transform="translate(-2.25 -4.5)" fill="#e23737" stroke="#e23737" stroke-linecap="round" stroke-linejoin="round" stroke-width="2.25"/><path d="M25.875,31.5H10.125" transform="translate(-2.25 -4.5)" fill="none" stroke="#e23737" stroke-linecap="round" stroke-linejoin="round" stroke-width="2.25"/><path d="M2.25,21.375V24.75A2.256,2.256,0,0,0,4.5,27h27a2.256,2.256,0,0,0,2.25-2.25V21.375ZM18,25.875a1.125,1.125,0,1,1,1.125-1.125A1.125,1.125,0,0,1,18,25.875Z" transform="translate(-2.25 -4.5)" fill="#e23737"/></g></svg>