<svg xmlns="http://www.w3.org/2000/svg" width="31.5" height="27.006" viewBox="0 0 31.5 27.006"><g transform="translate(-2.25 -4.495)"><path d="M29.9,22.838c-2.911-1.1-2.735-.661-2.735-2.707,0-1.322.654-.837,1.069-3.354.162-.991.3-.33.64-1.92.183-.83-.127-.893-.084-1.287s.07-.752.141-1.561A3.748,3.748,0,0,0,24.9,8.353a3.748,3.748,0,0,0-4.036,3.656c.063.816.1,1.167.141,1.561s-.267.457-.084,1.287c.345,1.589.478.921.64,1.92.415,2.517,1.062,2.039,1.062,3.354,0,.942.218,1.336-1.048,1.934.38.134.823.3,1.357.5,3.825,1.455,3.734,2.869,3.832,3.537.07.457.1,4.1.12,5.4H33.75s0-5.66-.1-6.321c-.077-.52-.773-1.209-3.741-2.341Z" fill="#fff"/><path d="M25.1,31.5s0-.991-.014-2.137c-.014-1.308-.049-2.813-.12-3.262-.1-.668-1-1.561-4.823-3.016-.527-.2-.97-.359-1.357-.5-2.341-.83-2.173-1.1-2.173-3.375,0-1.709.844-.6,1.378-3.839.211-1.28.38-.429.823-2.475.239-1.069-.162-1.153-.113-1.666s.1-.97.183-2.018a4.834,4.834,0,0,0-5.21-4.718,4.834,4.834,0,0,0-5.21,4.718c.084,1.048.134,1.505.19,2.018s-.352.591-.113,1.666c.45,2.046.619,1.195.83,2.475.534,3.241,1.371,2.13,1.371,3.839,0,2.644.232,2.447-3.53,3.874C3.4,24.539,2.5,25.432,2.391,26.1c-.141.851-.141,5.4-.141,5.4Z" fill="#fff"/></g></svg>