<svg xmlns="http://www.w3.org/2000/svg" width="25.685" height="22" viewBox="0 0 25.685 22"><path d="M27.913,10.623l-1.833-5.5a.917.917,0,0,0-.917-.623H5a.917.917,0,0,0-.917.623l-1.833,5.5a1.091,1.091,0,0,0,0,.293v5.5a.917.917,0,0,0,.917.917h.917V26.5H5.914V17.332h5.5V26.5H26.08V17.332H27a.917.917,0,0,0,.917-.917v-5.5A1.091,1.091,0,0,0,27.913,10.623ZM24.247,24.665h-11V17.332h11ZM26.08,15.5H22.413V11.833H20.58V15.5H16V11.833H14.164V15.5H9.581V11.833H7.747V15.5H4.081V11.063l1.577-4.73H24.5l1.577,4.73Z" transform="translate(-2.238 -4.498)" fill="#e23737"/></svg>