<svg xmlns="http://www.w3.org/2000/svg" width="30.808" height="26.407" viewBox="0 0 30.808 26.407"><path d="M11,4.4h8.8V2.2H11V4.4Zm-6.051,0V26.407h-1.1a3.706,3.706,0,0,1-2.716-1.135A3.706,3.706,0,0,1,0,22.556V8.252A3.706,3.706,0,0,1,1.135,5.536,3.706,3.706,0,0,1,3.851,4.4h1.1Zm19.255,0V26.407H6.6V4.4H8.8V1.651A1.59,1.59,0,0,1,9.284.482,1.6,1.6,0,0,1,10.453,0h9.9a1.59,1.59,0,0,1,1.169.482,1.6,1.6,0,0,1,.482,1.169V4.4h2.2Zm6.6,3.851v14.3a3.875,3.875,0,0,1-3.851,3.851h-1.1V4.4h1.1a3.706,3.706,0,0,1,2.716,1.135A3.706,3.706,0,0,1,30.808,8.252Z" fill="#e23737"/></svg>